<?xml version="1.0" standalone="no"?>
<!DOCTYPE svg PUBLIC "-//W3C//DTD SVG 20010904//EN"
 "http://www.w3.org/TR/2001/REC-SVG-20010904/DTD/svg10.dtd">
<svg version="1.0" xmlns="http://www.w3.org/2000/svg"
 width="700.000000pt" height="700.000000pt" viewBox="0 0 700.000000 700.000000"
 preserveAspectRatio="xMidYMid meet">
<metadata>
Created by potrace 1.14, written by Peter Selinger 2001-2017
</metadata>
<g transform="translate(0.000000,700.000000) scale(0.100000,-0.100000)"
fill="#000000" stroke="none">
<path d="M557 6448 c-7 -4 -10 -850 -9 -2865 0 -1572 1 -2861 1 -2865 1 -5
1353 -8 3006 -8 2397 0 3005 3 3006 13 1 16 1 5709 0 5722 -1 11 -5985 15
-6004 3z m5497 -397 c-15 -23 -56 -78 -91 -121 -7 -8 -137 -177 -289 -375
-251 -327 -339 -441 -362 -470 -9 -12 -133 -173 -387 -503 -144 -187 -195
-248 -196 -230 -1 24 -3 39 -15 98 -10 49 -10 50 -24 100 -69 254 -258 514
-483 664 -275 183 -627 245 -941 165 -277 -70 -493 -217 -668 -453 -106 -142
-199 -367 -215 -518 -3 -32 -9 -58 -14 -58 -4 0 -69 80 -144 178 -75 97 -142
184 -148 192 -7 8 -43 56 -81 105 -38 50 -80 104 -93 120 -13 17 -27 35 -31
40 -4 6 -59 78 -123 160 -64 83 -144 188 -180 235 -35 47 -66 87 -69 90 -3 3
-25 32 -50 65 -25 33 -48 62 -51 65 -3 3 -32 41 -65 85 -32 44 -61 82 -64 85
-4 3 -19 23 -36 45 -16 22 -33 45 -39 51 -5 6 -19 23 -30 38 -11 16 -44 58
-72 95 -29 36 -53 69 -53 72 0 3 1132 6 2515 6 l2516 0 -17 -26z m-4958 -561
c240 -311 359 -466 405 -526 30 -38 261 -339 514 -667 253 -328 477 -628 497
-665 l38 -69 -43 -55 c-23 -31 -78 -102 -122 -159 -43 -57 -142 -185 -218
-284 -76 -99 -149 -193 -162 -210 -13 -16 -37 -48 -54 -70 -17 -22 -35 -45
-40 -51 -4 -5 -53 -68 -107 -140 -54 -71 -101 -131 -104 -134 -3 -3 -48 -61
-100 -130 -87 -115 -225 -295 -253 -330 -7 -8 -62 -80 -122 -160 -61 -80 -113
-147 -116 -150 -5 -4 -69 -88 -222 -288 -22 -29 -42 -51 -44 -48 -3 3 -6 4271
-3 4445 0 17 25 -9 103 -110 56 -74 125 -163 153 -199z m5172 -3022 l-3 -1123
-57 75 c-62 81 -208 271 -413 537 -71 92 -133 173 -137 178 -4 6 -20 26 -35
45 -16 19 -49 62 -73 95 -25 33 -53 69 -62 80 -9 11 -80 103 -158 205 -77 102
-146 192 -153 200 -19 23 -343 444 -411 535 -34 44 -63 82 -67 85 -7 7 -123
162 -133 177 -15 27 53 123 433 618 216 281 398 517 404 525 24 29 242 312
263 341 33 46 68 91 79 103 6 6 24 29 40 51 16 22 48 63 70 92 47 61 50 63
233 302 78 102 150 196 160 209 16 21 17 -38 20 -1092 1 -613 1 -1620 0 -2238z
m-3401 562 c209 -338 216 -349 322 -565 160 -323 274 -656 327 -950 3 -16 13
-68 23 -115 l17 -85 9 50 c4 28 9 55 10 60 4 17 45 219 50 243 2 13 7 32 10
42 3 10 8 27 10 37 27 127 119 386 208 582 55 121 90 191 197 386 71 132 343
556 350 548 4 -4 153 -198 331 -429 178 -232 334 -434 346 -450 12 -16 104
-135 204 -264 99 -129 200 -260 223 -290 23 -30 127 -165 231 -300 301 -390
334 -434 331 -438 -5 -5 -5017 -4 -5022 1 -2 2 112 154 253 339 1144 1487
1417 1838 1423 1831 4 -4 70 -109 147 -233z"/>
</g>
</svg>
